<svg version="1.0" width="1280.000000pt" height="500.000000pt"
    viewBox="221.924 133.178 364.949 301.328" preserveAspectRatio="xMidYMid meet"
    xmlns="http://www.w3.org/2000/svg">
    <defs></defs>
    <g transform="matrix(0.138124, 0, 0, -0.187444, -128.43837, 722.677856)" fill="#000000"
        stroke="none" style="">
        <path
            d="M 4509.081 3090.436 C 4424.243 3076.781 4313.482 3063.127 4259.28 3063.127 C 4162.659 3061.61 4096.674 3031.266 4044.829 2962.994 C 4028.332 2943.271 4028.332 2753.626 4042.472 2401.644 C 4054.255 2110.349 4058.968 1811.468 4049.542 1738.645 C 4037.759 1612.72 4037.759 1605.134 4082.534 1605.134 C 4202.722 1605.134 4292.273 1761.402 4313.482 2004.148 L 4327.622 2166.484 L 4412.46 2166.484 C 4520.864 2166.484 4598.632 2201.379 4641.051 2266.617 C 4718.82 2384.955 4669.331 2424.402 4452.522 2424.402 L 4320.552 2424.402 L 4320.552 2614.047 C 4320.552 2800.658 4320.552 2803.692 4377.111 2812.795 C 4407.747 2817.347 4494.941 2814.312 4570.353 2805.209 C 4645.765 2796.106 4758.882 2788.521 4822.51 2788.521 C 4926.201 2788.521 4949.767 2794.589 5032.249 2847.69 C 5117.087 2903.825 5124.157 2912.928 5117.087 2981.2 C 5110.017 3043.404 5102.947 3054.024 5058.172 3058.575 C 5027.536 3061.61 5003.969 3069.195 5003.969 3075.264 C 5003.969 3082.85 4947.411 3091.953 4881.426 3096.504 C 4813.084 3102.573 4735.316 3108.642 4709.393 3111.676 C 4683.47 3116.227 4593.919 3105.607 4509.081 3090.436 Z"
            style="stroke-width: 30px; stroke: rgb(175, 66, 97); fill: rgb(243, 236, 120);"></path>
        <path
            d="M 3098.891 3068.679 C 2885.717 2984.798 2700.653 2790.943 2635.061 2582.176 C 2529.645 2254.113 2724.08 1881.314 3045.011 1806.754 C 3183.223 1773.201 3244.129 1778.794 3452.618 1849.625 C 3487.757 1860.809 3492.442 1849.625 3492.442 1730.33 L 3492.442 1597.985 L 3558.034 1597.985 C 3630.654 1597.985 3717.328 1652.042 3747.783 1717.282 C 3759.495 1737.786 3775.894 1886.905 3785.263 2047.21 C 3811.032 2479.656 3778.236 2529.983 3473.702 2529.983 C 3230.075 2529.983 3119.974 2472.199 3117.631 2349.177 L 3117.631 2287.664 L 3255.843 2287.664 C 3426.85 2287.664 3466.674 2276.48 3492.442 2220.561 C 3518.21 2166.505 3480.729 2069.577 3422.165 2045.344 C 3272.241 1981.969 3068.438 2069.577 2963.022 2244.793 C 2904.457 2337.993 2895.087 2375.272 2895.087 2511.345 C 2895.087 2636.231 2904.457 2686.56 2944.281 2744.344 C 3042.668 2895.327 3185.565 2897.191 3384.684 2751.799 C 3454.961 2701.471 3520.553 2660.464 3534.609 2660.464 C 3579.118 2660.464 3686.875 2742.479 3719.671 2805.856 C 3750.126 2865.503 3750.126 2872.96 3691.56 2932.607 C 3539.294 3091.046 3298.009 3146.967 3098.891 3068.679 Z"
            style="stroke-width: 30px; stroke: rgb(175, 66, 97); fill: rgb(243, 236, 120);"></path>
    </g>
</svg>