<svg version="1.0" width="500pt" height="500pt" viewBox="0 0 306.046 245.581"
  preserveAspectRatio="xMidYMid meet" xmlns="http://www.w3.org/2000/svg">
  <defs></defs>
  <g transform="matrix(0.1, 0, 0, -0.1, -469.767426, 487.441895)" fill="#000000" stroke="none">
    <path
      d="M5264 4548 c-32 -22 -57 -49 -73 -81 l-24 -48 46 -190 c26 -105 45
-195 41 -200 -3 -5 -16 -9 -30 -9 -41 0 -87 -25 -127 -69 -34 -38 -38 -47 -35
-88 3 -46 3 -47 48 -57 51 -12 43 9 71 -199 6 -52 15 -85 20 -80 8 8 28 167
29 226 0 9 4 17 9 17 5 0 12 -48 16 -107 12 -177 33 -181 37 -8 2 81 6 100 18
100 18 0 31 -38 72 -210 29 -121 32 -147 37 -369 7 -261 8 -266 65 -252 36 9
116 83 132 123 18 42 19 434 2 545 -6 43 -8 81 -4 85 4 4 21 1 39 -6 45 -19
83 -24 112 -17 37 9 99 69 120 116 15 34 16 44 5 65 -15 28 -41 39 -214 91
-89 27 -132 45 -142 59 -15 23 -55 185 -45 185 16 0 403 -170 430 -189 21 -15
32 -34 37 -59 10 -58 17 -60 29 -8 5 27 16 51 23 54 9 3 12 -47 13 -225 0
-129 4 -219 9 -208 6 16 9 17 12 5 55 -178 170 -317 338 -407 59 -32 70 -43
74 -68 11 -77 26 -246 26 -300 0 -73 10 -135 21 -135 16 0 29 77 41 257 7 100
16 183 20 183 12 0 25 -32 33 -80 11 -70 21 -80 34 -34 6 21 11 55 11 74 0 35
2 36 80 70 44 19 108 57 141 83 33 27 63 47 65 44 3 -3 18 -61 34 -129 16 -67
37 -148 47 -178 16 -47 22 -55 46 -58 35 -4 86 27 132 81 31 36 35 47 35 97 0
31 -4 70 -9 86 -51 162 -100 418 -88 465 5 18 20 31 59 47 90 37 152 111 146
174 -3 31 -5 33 -53 39 -27 4 -229 10 -448 14 l-397 8 -60 -60 c-52 -51 -60
-65 -60 -97 0 -29 5 -38 23 -45 24 -9 351 -31 459 -31 100 0 98 2 98 -99 0
-74 -4 -95 -26 -139 -28 -56 -71 -98 -111 -108 -40 -10 -131 14 -218 59 -106
54 -187 136 -240 242 -40 80 -40 80 -40 200 0 113 2 124 31 185 38 80 84 134
137 161 42 22 56 16 57 -23 0 -34 17 -26 31 15 14 42 14 41 19 -75 5 -109 13
-149 24 -117 11 29 26 146 26 197 l0 52 60 0 c75 0 153 -36 178 -82 9 -17 28
-44 41 -60 37 -46 81 -34 148 40 49 53 53 61 53 108 0 75 -53 137 -160 187
-38 18 -65 21 -170 21 -124 1 -126 0 -208 -38 -116 -53 -153 -80 -263 -193
-75 -76 -106 -117 -140 -183 -42 -81 -44 -84 -47 -52 -3 35 42 142 60 142 5 0
8 20 6 45 l-3 46 -205 89 c-251 110 -388 180 -459 234 -134 102 -134 102 -207
54z"
      style="fill: rgb(243, 236, 120); stroke: rgb(175, 66, 97); stroke-width: 90px;"></path>
  </g>
</svg>