<svg viewBox="0 0 904.255 122.34" xmlns="http://www.w3.org/2000/svg">
  <defs></defs>
  <g transform="matrix(0.591763, 0, 0, 0.591763, -110.011803, -15.018415)" style="">
    <path style="opacity:0.978" fill="#af4362" d="M 526.5,47.5 C 543.434,46.9203 559.767,49.7537 575.5,56C 579.408,58.0322 582.575,60.8655 585,64.5C 600.63,49.8175 617.797,47.8175 636.5,58.5C 654.014,47.8674 671.514,47.8674 689,58.5C 701.46,51.0169 714.96,48.5169 729.5,51C 740.309,52.7024 750.976,55.0357 761.5,58C 771.914,62.5404 780.914,69.0404 788.5,77.5C 812.034,52.0326 840.368,44.8659 873.5,56C 886.553,60.2736 897.72,67.4403 907,77.5C 919.527,96.759 917.694,114.592 901.5,131C 911.938,146.917 912.105,163.084 902,179.5C 885.175,201.156 863.008,210.656 835.5,208C 816.234,205.784 800.068,197.618 787,183.5C 771.832,196.33 754.332,204.163 734.5,207C 718.938,211.455 703.938,210.122 689.5,203C 687.317,200.65 684.984,198.483 682.5,196.5C 670.334,203.535 657.667,204.369 644.5,199C 640.833,196.833 637.167,194.667 633.5,192.5C 616.525,205.594 598.025,208.261 578,200.5C 551.616,209.104 525.116,209.604 498.5,202C 495.088,200.545 491.921,198.712 489,196.5C 471.641,207.974 453.141,210.141 433.5,203C 428.973,200.904 424.973,198.071 421.5,194.5C 406.41,202.317 391.41,202.317 376.5,194.5C 361.255,205.649 344.589,208.482 326.5,203C 318.514,198.209 313.014,191.376 310,182.5C 307.689,175.254 305.689,167.921 304,160.5C 300.295,163.237 296.129,164.903 291.5,165.5C 294.118,185.427 285.785,198.26 266.5,204C 249.321,208.66 233.821,205.494 220,194.5C 214.716,187.056 211.716,178.722 211,169.5C 210.308,144.154 210.641,118.821 212,93.5C 213.224,81.9127 216.89,71.246 223,61.5C 230.68,55.3587 239.513,51.8587 249.5,51C 267.26,47.5073 284.926,47.8406 302.5,52C 308.04,52.8463 313.207,54.6796 318,57.5C 329.287,51.0423 341.453,48.5423 354.5,50C 376.238,50.7989 395.738,57.6322 413,70.5C 418.071,57.7958 427.571,50.6291 441.5,49C 453.581,47.4804 464.581,50.1471 474.5,57C 476.333,59.5 478.167,62 480,64.5C 482.921,60.9084 486.421,58.0751 490.5,56C 502.41,52.1872 514.41,49.3538 526.5,47.5 Z"></path>
  </g>
  <g transform="matrix(0.591763, 0, 0, 0.591763, -110.011803, -15.018415)" style="">
    <path style="opacity:0.977" fill="#af4362" d="M 1530.5,47.5 C 1545.55,47.0797 1560.22,49.2463 1574.5,54C 1581.84,57.007 1587.67,61.8404 1592,68.5C 1616.93,48.7888 1644.1,45.2888 1673.5,58C 1688.1,63.6119 1699.27,73.1119 1707,86.5C 1712.56,103.411 1709.06,118.245 1696.5,131C 1708.32,153.931 1704.65,174.264 1685.5,192C 1655.29,213.075 1624.45,213.908 1593,194.5C 1589.21,197.312 1585.04,199.479 1580.5,201C 1553.45,209.551 1526.45,209.551 1499.5,201C 1495.9,198.952 1492.4,196.786 1489,194.5C 1476.8,200.146 1463.97,201.979 1450.5,200C 1437.93,197.264 1429.59,189.764 1425.5,177.5C 1416.83,181.5 1408.17,181.5 1399.5,177.5C 1395.31,191.527 1385.97,199.694 1371.5,202C 1361.38,203.253 1351.55,202.086 1342,198.5C 1320.67,205.201 1300.17,203.368 1280.5,193C 1279.27,191.365 1277.94,189.865 1276.5,188.5C 1271.54,198.481 1263.54,204.314 1252.5,206C 1236.29,207.363 1221.29,203.863 1207.5,195.5C 1183.92,205.878 1159.92,207.044 1135.5,199C 1116.92,191.416 1105.08,177.916 1100,158.5C 1091.08,129.789 1095.08,103.122 1112,78.5C 1133.65,55.5441 1159.81,48.0441 1190.5,56C 1213.76,62.7939 1224.43,77.9606 1222.5,101.5C 1230.75,87.4028 1240.75,74.5695 1252.5,63C 1270.37,48.5312 1288.7,47.8646 1307.5,61C 1318.66,71.4872 1327.49,83.6539 1334,97.5C 1339.06,83.2112 1347.22,71.0446 1358.5,61C 1374.7,50.0568 1391.7,48.7234 1409.5,57C 1412.66,59.157 1415.49,61.657 1418,64.5C 1432.81,51.0076 1449.31,48.5076 1467.5,57C 1472.29,60.3827 1476.62,64.2161 1480.5,68.5C 1484.15,62.0226 1489.48,57.5226 1496.5,55C 1507.76,51.5135 1519.1,49.0135 1530.5,47.5 Z"></path>
  </g>
  <g transform="matrix(0.591763, 0, 0, 0.591763, -110.011803, -15.018415)" style="">
    <path style="opacity:0.971" fill="#af4361" d="M 998.5,63.5 C 1013.43,62.6789 1025.93,67.6789 1036,78.5C 1037.85,82.7295 1039.68,86.8962 1041.5,91C 1054.8,92.629 1063.63,99.7957 1068,112.5C 1074.18,128.59 1071.68,143.09 1060.5,156C 1055.27,159.228 1049.6,161.394 1043.5,162.5C 1039.11,180.044 1027.77,189.544 1009.5,191C 995.127,191.73 983.96,186.23 976,174.5C 974.641,169.534 973.474,164.534 972.5,159.5C 958.654,158.498 949.154,151.498 944,138.5C 938.659,125.915 939.659,113.915 947,102.5C 953.268,96.5517 960.768,93.5517 969.5,93.5C 969.775,81.0989 975.441,72.2656 986.5,67C 990.709,66.1194 994.709,64.9527 998.5,63.5 Z"></path>
  </g>
  <g transform="matrix(0.591763, 0, 0, 0.591763, -110.011803, -15.018415)" style="">
    <path style="opacity:1" fill="#fefdfd" d="M 523.5,66.5 C 539.534,65.0058 554.867,67.5058 569.5,74C 570.211,75.2547 571.044,76.4214 572,77.5C 575.701,93.2942 569.868,103.128 554.5,107C 546.167,107.333 537.833,107.667 529.5,108C 525.205,109.845 524.538,112.512 527.5,116C 536.498,115.953 545.498,115.953 554.5,116C 561.138,120.017 563.304,125.85 561,133.5C 559.097,140.74 554.431,144.073 547,143.5C 541.835,142.814 536.668,142.647 531.5,143C 527.935,145.178 527.601,147.844 530.5,151C 539.722,151.608 548.888,151.108 558,149.5C 568.673,149.821 575.673,155.155 579,165.5C 582.771,173.778 580.604,179.611 572.5,183C 551.111,190.294 529.445,191.294 507.5,186C 500.457,183.621 495.29,179.121 492,172.5C 490.55,151.066 489.716,129.566 489.5,108C 489.399,99.7742 489.899,91.6076 491,83.5C 491.519,78.9809 493.686,75.4809 497.5,73C 505.995,69.6072 514.662,67.4405 523.5,66.5 Z"></path>
  </g>
  <g transform="matrix(0.591763, 0, 0, 0.591763, -110.011803, -15.018415)" style="">
    <path style="opacity:1" fill="#fefdfd" d="M 1524.5,66.5 C 1539.13,65.4896 1553.47,66.9896 1567.5,71C 1570.56,72.0608 1573.06,73.8941 1575,76.5C 1579.59,93.5198 1573.42,103.686 1556.5,107C 1548.83,107.333 1541.17,107.667 1533.5,108C 1529.65,109.608 1528.65,112.274 1530.5,116C 1539.16,115.905 1547.83,115.905 1556.5,116C 1562.61,117.506 1565.61,121.506 1565.5,128C 1565.01,132.822 1563.34,137.155 1560.5,141C 1559.17,141.667 1557.83,142.333 1556.5,143C 1549.16,143.204 1541.82,143.204 1534.5,143C 1530.59,145.475 1530.59,148.142 1534.5,151C 1543.26,151.744 1551.92,151.244 1560.5,149.5C 1568.42,148.876 1574.59,151.876 1579,158.5C 1583.18,164.743 1584.52,171.409 1583,178.5C 1577.82,182.345 1571.98,184.845 1565.5,186C 1546.37,190.992 1527.37,190.659 1508.5,185C 1502,182.5 1497.5,178 1495,171.5C 1493.87,156.885 1493.37,142.218 1493.5,127.5C 1493.38,112.129 1493.88,96.7958 1495,81.5C 1496.47,76.0264 1499.97,72.5264 1505.5,71C 1511.99,69.5468 1518.32,68.0468 1524.5,66.5 Z"></path>
  </g>
  <g transform="matrix(0.591763, 0, 0, 0.591763, -110.011803, -15.018415)" style="">
    <path style="opacity:1" fill="#fefdfd" d="M 300.5,110.5 C 297.098,110.658 293.764,110.324 290.5,109.5C 285.429,108.31 280.429,106.81 275.5,105C 271.833,104.333 268.167,104.333 264.5,105C 263.167,108.333 263.167,111.667 264.5,115C 268.167,115.667 271.833,115.667 275.5,115C 279.716,113.316 284.049,112.149 288.5,111.5C 291.609,111.264 294.609,111.597 297.5,112.5C 299.708,113.894 301.208,115.894 302,118.5C 303.589,129.065 300.756,138.232 293.5,146C 290.5,146.667 287.5,146.667 284.5,146C 279.803,143.732 274.969,141.898 270,140.5C 267.966,140.354 266.299,141.02 265,142.5C 264.333,145.5 264.333,148.5 265,151.5C 267.391,157.949 270.058,164.282 273,170.5C 274.04,174.533 273.374,178.199 271,181.5C 262.342,187.178 252.842,189.012 242.5,187C 233.373,183.849 228.873,177.349 229,167.5C 228.5,144.158 228.834,120.825 230,97.5C 230.622,88.6889 233.122,80.5222 237.5,73C 256.146,67.3859 275.146,66.0526 294.5,69C 300.132,69.7408 305.465,71.4074 310.5,74C 312.378,75.5429 313.878,77.3762 315,79.5C 316.833,90.9993 313.666,100.833 305.5,109C 303.846,109.608 302.179,110.108 300.5,110.5 Z"></path>
  </g>
  <g transform="matrix(0.591763, 0, 0, 0.591763, -110.011803, -15.018415)" style="">
    <path style="opacity:1" fill="#fefdfd" d="M 444.5,66.5 C 449.675,66.272 454.675,67.1053 459.5,69C 461.667,69.8333 463.167,71.3333 464,73.5C 473.591,108.237 478.924,143.57 480,179.5C 470.035,188.062 458.535,190.896 445.5,188C 436.884,185.955 432.717,180.455 433,171.5C 429.373,139.223 428.706,106.89 431,74.5C 434.544,70.1474 439.044,67.4808 444.5,66.5 Z"></path>
  </g>
  <g transform="matrix(0.591763, 0, 0, 0.591763, -110.011803, -15.018415)" style="">
    <path style="opacity:1" fill="#fefdfd" d="M 335.5,68.5 C 356.648,66.64 376.648,70.4733 395.5,80C 408.558,89.4841 414.058,102.317 412,118.5C 411.226,122.049 409.893,125.382 408,128.5C 403.931,133.394 399.764,138.061 395.5,142.5C 396.01,144.088 397.01,145.255 398.5,146C 405.002,149.75 411.335,153.75 417.5,158C 423.351,165.005 422.685,171.339 415.5,177C 406.565,181.611 397.231,182.611 387.5,180C 380.239,174.972 374.739,168.472 371,160.5C 368.33,156.478 364.663,154.145 360,153.5C 357.401,153.053 355.901,154.053 355.5,156.5C 358.315,162.13 361.149,167.797 364,173.5C 364.847,176.588 364.347,179.421 362.5,182C 353.486,187.605 343.819,188.938 333.5,186C 328.085,179.112 324.585,171.279 323,162.5C 317.949,140.429 315.949,118.096 317,95.5C 317.757,82.6128 323.924,73.6128 335.5,68.5 Z"></path>
  </g>
  <g transform="matrix(0.591763, 0, 0, 0.591763, -110.011803, -15.018415)" style="">
    <path style="opacity:1" fill="#fefdfd" d="M 654.5,69.5 C 659.844,69.334 665.177,69.5006 670.5,70C 678.247,71.7466 682.413,76.5799 683,84.5C 687.465,115.712 685.132,146.379 676,176.5C 671.464,183.844 664.964,186.344 656.5,184C 649.261,181.429 643.095,177.263 638,171.5C 632.893,164.288 628.56,156.621 625,148.5C 621.648,142.904 619.481,143.237 618.5,149.5C 619.874,156.782 620.874,164.115 621.5,171.5C 622.191,175.807 620.857,179.307 617.5,182C 608.216,186.664 598.55,187.664 588.5,185C 586.951,183.786 585.785,182.286 585,180.5C 581.27,154.008 582.27,127.675 588,101.5C 590.069,90.5276 594.902,81.0276 602.5,73C 610.281,69.5573 617.947,69.724 625.5,73.5C 627.499,75.4935 628.999,77.8268 630,80.5C 634.022,95.2528 638.355,109.919 643,124.5C 644.512,126.957 645.846,126.957 647,124.5C 647.818,114.404 647.151,104.404 645,94.5C 644.333,89.1667 644.333,83.8333 645,78.5C 646.75,73.9147 649.916,70.9147 654.5,69.5 Z"></path>
  </g>
  <g transform="matrix(0.591763, 0, 0, 0.591763, -110.011803, -15.018415)" style="">
    <path style="opacity:1" fill="#fefdfe" d="M 709.5,68.5 C 764.683,65.5163 790.517,91.5163 787,146.5C 784.108,159.718 776.942,169.885 765.5,177C 746.451,187.232 726.117,191.565 704.5,190C 699.133,187.968 695.967,184.135 695,178.5C 690.002,148.254 689.335,117.921 693,87.5C 694.502,77.5091 700.002,71.1758 709.5,68.5 Z"></path>
  </g>
  <g transform="matrix(0.591763, 0, 0, 0.591763, -110.011803, -15.018415)" style="">
    <path style="opacity:1" fill="#fefdfd" d="M 833.5,69.5 C 856.467,67.1918 876.3,73.8585 893,89.5C 900.185,104.004 896.352,114.837 881.5,122C 877.705,122.837 874.039,122.504 870.5,121C 866.812,116.314 862.812,111.981 858.5,108C 854.82,106.973 851.653,107.806 849,110.5C 848.08,113.308 848.913,115.475 851.5,117C 858.513,121.508 865.847,125.508 873.5,129C 880,132.833 885.167,138 889,144.5C 893.2,159.231 889.034,171.064 876.5,180C 852.483,194.553 829.15,193.553 806.5,177C 798.374,169.749 793.374,160.749 791.5,150C 792.859,139.982 798.359,133.815 808,131.5C 811.129,131.329 813.963,132.162 816.5,134C 822.138,139.15 828.138,143.817 834.5,148C 837.588,148.847 840.421,148.347 843,146.5C 843.63,144.097 842.797,142.263 840.5,141C 828.565,136.034 817.232,130.034 806.5,123C 794.737,110.773 794.57,98.2734 806,85.5C 813.945,77.9484 823.111,72.6151 833.5,69.5 Z"></path>
  </g>
  <g transform="matrix(0.591763, 0, 0, 0.591763, -110.011803, -15.018415)" style="">
    <path style="opacity:1" fill="#fefdfd" d="M 1628.5,69.5 C 1648.87,67.6751 1667.21,72.8417 1683.5,85C 1694.05,95.8969 1694.05,106.897 1683.5,118C 1677.7,122.496 1671.36,123.496 1664.5,121C 1660.95,116.204 1656.95,111.87 1652.5,108C 1643.05,107.751 1641.38,111.084 1647.5,118C 1654.83,122 1662.17,126 1669.5,130C 1689.73,145.058 1690.73,161.391 1672.5,179C 1658.63,188.631 1643.3,191.964 1626.5,189C 1607.2,185.027 1594.03,173.861 1587,155.5C 1585.19,145.287 1588.69,137.453 1597.5,132C 1601.59,131.233 1605.59,131.566 1609.5,133C 1615.83,138 1622.17,143 1628.5,148C 1631.59,148.847 1634.42,148.347 1637,146.5C 1638.04,143.196 1636.88,141.029 1633.5,140C 1623.17,135.563 1613.17,130.563 1603.5,125C 1590.64,113.855 1589.14,101.355 1599,87.5C 1606.99,78.3234 1616.82,72.3234 1628.5,69.5 Z"></path>
  </g>
  <g transform="matrix(0.591763, 0, 0, 0.591763, -110.011803, -15.018415)" style="">
    <path style="opacity:1" fill="#fefdfd" d="M 1337.5,166.5 C 1338.21,169.786 1338.54,173.119 1338.5,176.5C 1338.14,178.371 1337.14,179.871 1335.5,181C 1323.33,185.31 1311,185.643 1298.5,182C 1296.25,180.961 1294.09,179.794 1292,178.5C 1291.67,170.167 1291.33,161.833 1291,153.5C 1288.86,150.262 1285.86,148.595 1282,148.5C 1274.7,149.064 1268.37,151.73 1263,156.5C 1262.33,157.833 1261.67,159.167 1261,160.5C 1264.81,184.031 1255.31,192.865 1232.5,187C 1227.02,185.678 1222.19,183.178 1218,179.5C 1221.51,139.307 1237.35,104.807 1265.5,76C 1280.52,66.7279 1293.36,69.2279 1304,83.5C 1320.73,108.832 1331.89,136.498 1337.5,166.5 Z"></path>
  </g>
  <g transform="matrix(0.591763, 0, 0, 0.591763, -110.011803, -15.018415)" style="">
    <path style="opacity:1" fill="#fefdfd" d="M 1339.5,174.5 C 1339.5,171.167 1339.5,167.833 1339.5,164.5C 1341.43,142.268 1345.93,120.601 1353,99.5C 1357.6,86.9012 1365.77,77.4012 1377.5,71C 1391.98,66.9318 1402.81,71.4318 1410,84.5C 1411.54,90.5369 1413.21,96.5369 1415,102.5C 1416.59,103.727 1417.92,103.394 1419,101.5C 1421.47,95.0852 1424.14,88.7519 1427,82.5C 1436.71,69.0566 1448.54,66.89 1462.5,76C 1470.15,84.4586 1475.31,94.2919 1478,105.5C 1484.75,128.581 1486.08,151.915 1482,175.5C 1478.48,179.676 1473.98,181.843 1468.5,182C 1454.49,186.088 1445.66,181.254 1442,167.5C 1440.83,156.185 1439.83,144.852 1439,133.5C 1438.13,129.21 1436.13,128.544 1433,131.5C 1429.67,139.5 1426.33,147.5 1423,155.5C 1412.2,164.968 1403.87,162.968 1398,149.5C 1396.18,143.21 1394.51,136.877 1393,130.5C 1392.38,127.294 1390.71,126.294 1388,127.5C 1386.75,131.77 1385.75,136.104 1385,140.5C 1384.52,152.683 1382.85,164.683 1380,176.5C 1377.69,180.58 1374.19,183.08 1369.5,184C 1357.65,186.049 1347.65,182.882 1339.5,174.5 Z"></path>
  </g>
  <g transform="matrix(0.591763, 0, 0, 0.591763, -110.011803, -15.018415)" style="">
    <path style="opacity:1" fill="#fefdfd" d="M 1155.5,71.5 C 1163.17,71.3336 1170.84,71.5003 1178.5,72C 1189.94,73.1254 1198.44,78.6254 1204,88.5C 1205.02,99.1655 1200.19,105.666 1189.5,108C 1183.44,109.162 1177.78,108.162 1172.5,105C 1163.5,102.754 1156.67,105.587 1152,113.5C 1146.05,124.182 1146.05,134.848 1152,145.5C 1153.58,147.041 1155.41,148.208 1157.5,149C 1165.79,150.171 1173.79,149.171 1181.5,146C 1185.59,143.426 1185.43,141.593 1181,140.5C 1176.85,142.406 1172.52,143.739 1168,144.5C 1165.97,144.646 1164.3,143.98 1163,142.5C 1159.72,136.21 1158.72,129.543 1160,122.5C 1166.49,114.542 1174.99,110.376 1185.5,110C 1193.97,108.416 1201.8,109.916 1209,114.5C 1218.31,129.993 1219.98,146.326 1214,163.5C 1205.38,177.175 1192.88,184.342 1176.5,185C 1134.21,189.211 1113.54,170.045 1114.5,127.5C 1115.02,99.0924 1128.69,80.4257 1155.5,71.5 Z"></path>
  </g>
  <g transform="matrix(0.591763, 0, 0, 0.591763, -110.011803, -15.018415)" style="">
    <path style="opacity:1" fill="#fefdfd" d="M 997.5,82.5 C 1006.57,81.0537 1014.4,83.387 1021,89.5C 1020.9,97.0762 1021.07,104.576 1021.5,112C 1028.74,110.694 1036.08,110.028 1043.5,110C 1047.04,111.907 1049.54,114.74 1051,118.5C 1052.53,124.415 1052.86,130.415 1052,136.5C 1050.29,141.858 1046.62,144.191 1041,143.5C 1033.53,141.924 1026.03,140.591 1018.5,139.5C 1019.49,144.313 1020.99,148.98 1023,153.5C 1026.34,163.669 1022.84,169.835 1012.5,172C 1003.64,174.561 996.802,172.061 992,164.5C 991.779,156.157 991.779,147.824 992,139.5C 991.107,138.919 990.107,138.585 989,138.5C 971.324,146.138 961.157,140.638 958.5,122C 958.74,114.927 962.406,111.427 969.5,111.5C 975.815,112.608 982.148,113.608 988.5,114.5C 993.069,114.902 994.569,112.902 993,108.5C 990.066,102.106 988.733,95.4397 989,88.5C 991.186,85.4655 994.019,83.4655 997.5,82.5 Z"></path>
  </g>
  <g transform="matrix(0.591763, 0, 0, 0.591763, -110.011803, -15.018415)" style="">
    <path style="opacity:1" fill="#b14764" d="M 358.5,103.5 C 365.067,103.367 370.233,106.034 374,111.5C 374.585,118.616 371.418,123.449 364.5,126C 359.096,126.618 355.93,124.118 355,118.5C 353.559,112.772 354.726,107.772 358.5,103.5 Z"></path>
  </g>
  <g transform="matrix(0.591763, 0, 0, 0.591763, -110.011803, -15.018415)" style="">
    <path style="opacity:1" fill="#b04463" d="M 290.5,109.5 C 289.833,110.167 289.167,110.833 288.5,111.5C 284.049,112.149 279.716,113.316 275.5,115C 271.833,115.667 268.167,115.667 264.5,115C 263.167,111.667 263.167,108.333 264.5,105C 268.167,104.333 271.833,104.333 275.5,105C 280.429,106.81 285.429,108.31 290.5,109.5 Z"></path>
  </g>
  <g transform="matrix(0.591763, 0, 0, 0.591763, -110.011803, -15.018415)" style="">
    <path style="opacity:1" fill="#c87e93" d="M 290.5,109.5 C 293.764,110.324 297.098,110.658 300.5,110.5C 299.5,111.167 298.5,111.833 297.5,112.5C 294.609,111.597 291.609,111.264 288.5,111.5C 289.167,110.833 289.833,110.167 290.5,109.5 Z"></path>
  </g>
  <g transform="matrix(0.591763, 0, 0, 0.591763, -110.011803, -15.018415)" style="">
    <path style="opacity:1" fill="#b14765" d="M 730.5,109.5 C 742.175,111.291 748.842,118.124 750.5,130C 747.861,138.632 742.028,143.799 733,145.5C 728.806,144.146 726.806,141.146 727,136.5C 726.333,130.167 726.333,123.833 727,117.5C 727.502,114.512 728.669,111.845 730.5,109.5 Z"></path>
  </g>
  <g transform="matrix(0.591763, 0, 0, 0.591763, -110.011803, -15.018415)" style="">
    <path style="opacity:1" fill="#b14765" d="M 1274.5,110.5 C 1282.63,110.783 1287.63,114.95 1289.5,123C 1288.44,127.052 1285.78,129.386 1281.5,130C 1271.43,132.237 1266.6,128.404 1267,118.5C 1269.03,115.308 1271.53,112.641 1274.5,110.5 Z"></path>
  </g>
  <g transform="matrix(0.591763, 0, 0, 0.591763, -110.011803, -15.018415)" style="">
    <path style="opacity:1" fill="#e5c0ca" d="M 1339.5,164.5 C 1339.5,167.833 1339.5,171.167 1339.5,174.5C 1339.67,175.492 1339.34,176.158 1338.5,176.5C 1338.54,173.119 1338.21,169.786 1337.5,166.5C 1338.17,165.833 1338.83,165.167 1339.5,164.5 Z"></path>
  </g>
</svg>