<svg version="1.0" width="500pt" height="100pt"
    viewBox="249.32 176.287 748.621 134.834" preserveAspectRatio="xMidYMid meet"
    xmlns="http://www.w3.org/2000/svg">
    <defs></defs>
    <g transform="translate(0.000000,500.000000) scale(0.100000,-0.100000)" fill="#000000"
        stroke="none">
        <path
            d="M7330 3089 c-36 -9 -83 -18 -106 -18 -41 -1 -69 -21 -91 -66 -7 -13
-7 -138 -1 -370 5 -192 7 -389 3 -437 -5 -83 -5 -88 14 -88 51 0 89 103 98
263 l6 107 36 0 c46 0 79 23 97 66 33 78 12 104 -80 104 l-56 0 0 125 c0 123
0 125 24 131 13 3 50 1 82 -5 32 -6 80 -11 107 -11 44 0 54 4 89 39 36 37 39
43 36 88 -3 41 -6 48 -25 51 -13 2 -23 7 -23 11 0 5 -24 11 -52 14 -29 4 -62
8 -73 10 -11 3 -49 -4 -85 -14z"
            style="stroke-width: 30px; stroke: rgb(175, 66, 97); fill: rgb(243, 236, 120);"></path>
        <path
            d="M6443 2998 c-11 -13 -26 -33 -32 -45 -15 -30 -16 -853 0 -853 19 0
46 19 63 45 10 15 26 80 37 153 10 69 24 131 29 136 15 15 36 -49 49 -153 12
-94 20 -121 49 -153 19 -22 45 -9 72 35 21 34 27 87 10 87 -19 0 -40 60 -51
151 -13 113 -29 155 -65 171 -22 10 -32 9 -65 -9 l-39 -21 -2 236 c-3 204 -5
237 -18 240 -9 1 -25 -8 -37 -20z"
            style="stroke-width: 30px; stroke: rgb(175, 66, 97); fill: rgb(243, 236, 120);"></path>
        <path
            d="M9364 3001 c-47 -29 -57 -72 -59 -259 l-1 -164 -53 -2 c-68 -4 -125
-43 -168 -115 -46 -76 -52 -129 -22 -188 47 -91 131 -105 256 -42 116 58 111
39 108 441 -4 375 -2 365 -61 329z m-123 -576 c23 -15 49 -57 49 -79 0 -30
-68 -15 -102 24 -56 61 -18 100 53 55z"
            style="stroke-width: 30px; stroke: rgb(175, 66, 97); fill: rgb(243, 236, 120);"></path>
        <path
            d="M2802 2959 c-91 -45 -170 -149 -198 -261 -45 -176 38 -376 175 -416
59 -18 85 -15 174 23 15 6 17 0 17 -64 l0 -71 28 0 c31 0 68 29 81 64 5 11 12
91 16 177 11 232 -3 259 -133 259 -104 0 -151 -31 -152 -97 l0 -33 59 0 c73 0
90 -6 101 -36 11 -29 -5 -81 -30 -94 -64 -34 -151 13 -196 107 -25 50 -29 70
-29 143 0 67 4 94 21 125 42 81 103 82 188 4 30 -27 58 -49 64 -49 19 0 65 44
79 78 13 32 13 36 -12 68 -65 85 -168 115 -253 73z"
            style="stroke-width: 30px; stroke: rgb(175, 66, 97); fill: rgb(243, 236, 120);"></path>
        <path
            d="M8077 2939 c-23 -14 -59 -86 -55 -112 5 -35 36 -32 73 7 33 35 52 86
40 106 -8 13 -35 12 -58 -1z"
            style="stroke-width: 30px; stroke: rgb(175, 66, 97); fill: rgb(243, 236, 120);"></path>
        <path d="M5928 2828 c-28 -24 -48 -62 -48 -95 0 -73 76 -14 87 67 6 43 -8 52
-39 28z"
            style="stroke-width: 30px; stroke: rgb(175, 66, 97); fill: rgb(243, 236, 120);"></path>
        <path
            d="M7708 2791 c-55 -44 -58 -64 -58 -373 0 -155 3 -293 6 -305 9 -33 37
-28 72 11 39 45 47 74 67 236 9 74 21 143 26 152 6 12 21 18 43 18 49 0 96 58
96 119 0 30 -1 31 -45 31 -51 0 -90 -16 -120 -50 l-20 -22 -5 98 c-6 109 -15
122 -62 85z"
            style="stroke-width: 30px; stroke: rgb(175, 66, 97); fill: rgb(243, 236, 120);"></path>
        <path
            d="M4745 2756 c-76 -34 -128 -132 -129 -241 0 -52 5 -78 19 -102 20 -35
76 -63 123 -63 38 0 72 -26 72 -56 0 -23 -2 -24 -69 -24 -67 0 -71 -1 -95 -33
-32 -41 -43 -91 -26 -112 17 -20 140 -20 179 0 104 53 167 250 111 343 -23 37
-72 62 -123 62 -41 0 -66 18 -69 50 -3 23 0 25 47 28 73 5 121 59 113 128 -3
28 -5 29 -63 31 -34 2 -73 -3 -90 -11z"
            style="stroke-width: 30px; stroke: rgb(175, 66, 97); fill: rgb(243, 236, 120);"></path>
        <path
            d="M3305 2750 c-78 -20 -113 -48 -140 -114 -18 -41 -14 -66 9 -66 8 0
43 13 78 30 74 35 101 37 128 10 35 -35 26 -50 -28 -50 -124 0 -241 -157 -202
-274 6 -19 29 -50 50 -70 62 -56 131 -59 237 -11 80 36 89 56 85 199 -4 131
-21 210 -57 272 -38 65 -95 91 -160 74z m24 -335 c26 -13 61 -67 61 -94 0 -16
-52 -13 -78 5 -24 17 -52 64 -52 89 0 19 32 20 69 0z"
            style="stroke-width: 30px; stroke: rgb(175, 66, 97); fill: rgb(243, 236, 120);"></path>
        <path
            d="M4355 2700 c-90 -59 -142 -197 -132 -349 7 -110 21 -157 59 -194 27
-27 33 -29 79 -24 69 8 141 50 168 97 40 71 23 97 -40 64 -40 -20 -86 -21
-105 -2 -14 14 -12 18 18 36 37 23 65 57 96 119 72 139 37 273 -70 273 -26 0
-55 -8 -73 -20z m63 -162 c12 -12 22 -27 22 -33 0 -9 -73 -35 -100 -35 -11 0
-13 43 -4 78 6 19 11 22 33 17 14 -4 36 -16 49 -27z"
            style="stroke-width: 30px; stroke: rgb(175, 66, 97); fill: rgb(243, 236, 120);"></path>
        <path
            d="M6138 2700 c-14 -11 -33 -37 -41 -58 -9 -23 -24 -42 -36 -45 -24 -6
-61 -63 -61 -94 0 -20 5 -23 39 -23 l39 0 4 -147 c3 -123 7 -156 25 -195 36
-80 84 -77 162 8 58 64 78 97 83 140 2 23 -1 30 -18 32 -16 2 -31 -10 -58 -47
-20 -28 -40 -51 -46 -51 -5 0 -17 12 -27 27 -13 20 -19 53 -21 130 l-4 103 31
0 c34 0 66 26 81 66 18 47 14 53 -47 56 l-58 3 0 54 c0 61 -10 70 -47 41z"
            style="stroke-width: 30px; stroke: rgb(175, 66, 97); fill: rgb(243, 236, 120);"></path>
        <path
            d="M8390 2709 c-118 -49 -185 -242 -150 -428 23 -121 63 -154 156 -126
90 27 164 95 164 151 0 29 -6 29 -61 4 -52 -23 -92 -25 -108 -6 -9 11 -5 18
21 34 84 52 152 207 128 293 -19 67 -89 104 -150 78z m9 -150 c33 -12 59 -46
44 -59 -13 -12 -90 -28 -100 -21 -11 7 4 91 16 91 4 0 22 -5 40 -11z"
            style="stroke-width: 30px; stroke: rgb(175, 66, 97); fill: rgb(243, 236, 120);"></path>
        <path
            d="M9572 2703 c-87 -43 -130 -172 -82 -250 20 -34 31 -38 119 -47 104
-10 108 -66 4 -66 -65 0 -88 -11 -108 -50 -19 -36 -19 -66 -2 -73 8 -3 46 -1
87 3 55 6 82 15 114 37 51 36 97 109 103 166 5 38 1 48 -24 77 -25 28 -37 33
-95 39 -67 7 -98 22 -98 47 0 10 14 14 49 14 70 0 133 57 115 105 -9 21 -137
20 -182 -2z"
            style="stroke-width: 30px; stroke: rgb(175, 66, 97); fill: rgb(243, 236, 120);"></path>
        <path
            d="M8069 2700 c-9 -5 -24 -21 -33 -35 -15 -23 -18 -64 -21 -311 l-3
-284 22 0 c23 0 55 28 75 67 13 25 31 259 31 403 0 148 -19 191 -71 160z"
            style="stroke-width: 30px; stroke: rgb(175, 66, 97); fill: rgb(243, 236, 120);"></path>
        <path
            d="M8677 2672 c-15 -16 -32 -44 -37 -63 -6 -18 -10 -125 -10 -237 0
-175 2 -203 16 -209 20 -7 64 25 86 63 10 18 21 73 28 142 12 124 22 162 44
162 45 0 65 -64 73 -232 6 -133 8 -138 50 -115 66 37 83 104 64 264 -17 147
-61 223 -129 223 -21 0 -82 -36 -99 -58 -11 -13 -13 -7 -13 36 0 48 -2 52 -23
52 -13 0 -35 -13 -50 -28z"
            style="stroke-width: 30px; stroke: rgb(175, 66, 97); fill: rgb(243, 236, 120);"></path>
        <path
            d="M3625 2656 c-41 -44 -45 -60 -51 -241 -8 -236 9 -282 79 -211 34 33
35 38 42 134 4 54 11 105 15 113 14 22 30 -34 37 -132 6 -82 8 -89 27 -89 46
0 86 48 100 119 22 115 38 134 74 84 30 -44 41 -88 48 -189 8 -110 15 -115 77
-54 l40 40 -5 123 c-6 137 -22 192 -70 232 -47 40 -98 35 -153 -16 -28 -26
-45 -36 -45 -27 0 9 -9 27 -21 42 -23 30 -78 36 -99 11 -22 -27 -29 -16 -23
40 6 52 5 55 -17 55 -13 0 -37 -15 -55 -34z"
            style="stroke-width: 30px; stroke: rgb(175, 66, 97); fill: rgb(243, 236, 120);"></path>
        <path
            d="M5893 2583 c-15 -23 -19 -57 -22 -238 -2 -115 -4 -230 -5 -255 -1
-42 1 -45 24 -45 16 0 31 10 46 32 17 26 22 52 27 154 9 153 9 342 1 363 -10
26 -51 19 -71 -11z"
            style="stroke-width: 30px; stroke: rgb(175, 66, 97); fill: rgb(243, 236, 120);"></path>
        <path
            d="M5408 2568 c-28 -24 -48 -62 -48 -95 0 -54 50 -254 79 -313 19 -40
34 -58 55 -65 27 -9 32 -6 71 38 33 37 44 45 48 33 11 -29 63 -20 90 17 42 55
56 93 87 221 36 150 37 166 10 166 -34 0 -57 -35 -91 -139 -37 -111 -42 -111
-54 3 -7 64 -8 67 -33 64 -46 -5 -66 -49 -72 -151 l-6 -92 -21 45 c-11 25 -33
98 -48 163 -27 117 -35 130 -67 105z"
            style="stroke-width: 30px; stroke: rgb(175, 66, 97); fill: rgb(243, 236, 120);"></path>
    </g>
</svg>