<svg version="1.0" width="500pt" height="100pt" viewBox="0 0 1090.233 197.209"
  preserveAspectRatio="xMidYMid meet" xmlns="http://www.w3.org/2000/svg">
  <defs></defs>
  <g transform="matrix(0.1, 0, 0, -0.1, -91.162781, 462.325592)" fill="#000000" stroke="none">
    <path
      d="M2490 4393 c-73 -49 -70 -41 -70 -215 l0 -158 -55 0 c-67 0 -110 -20
-191 -89 -65 -56 -74 -60 -74 -33 0 29 -40 145 -55 161 -12 12 -20 11 -55 -7
l-41 -20 -146 64 c-168 74 -238 112 -307 166 -28 22 -60 38 -75 38 -39 0 -85
-33 -106 -76 -18 -38 -18 -39 15 -174 18 -74 33 -139 34 -144 0 -6 -17 -13
-38 -17 -52 -9 -119 -77 -114 -116 2 -20 11 -29 37 -38 40 -13 45 -26 56 -134
4 -39 10 -71 15 -71 9 0 20 75 20 136 0 24 5 44 10 44 6 0 10 -24 10 -52 0
-70 10 -129 21 -122 5 3 9 41 9 85 0 88 13 102 36 37 35 -102 58 -248 63 -408
6 -163 6 -165 29 -168 17 -3 37 10 74 47 l50 50 -5 208 c-3 114 -7 217 -8 228
-4 21 -3 21 82 9 30 -5 42 -1 71 25 20 17 41 44 48 60 21 51 4 64 -134 106
-118 37 -126 41 -136 70 -17 52 -28 115 -21 115 20 0 299 -125 317 -142 12
-11 25 -34 29 -51 l8 -32 6 34 c3 19 12 36 19 39 9 3 12 -34 13 -160 1 -97 4
-153 9 -138 4 14 8 45 9 69 2 67 11 44 32 -76 35 -198 49 -261 69 -305 11 -24
20 -55 20 -70 0 -16 5 -28 10 -28 6 0 10 9 10 19 0 11 5 23 10 26 6 4 10 -47
10 -146 0 -200 17 -187 29 22 8 154 9 155 42 203 l34 48 -4 237 c-3 199 -1
243 13 274 15 37 16 38 63 35 l48 -3 10 -57 c13 -74 21 -80 35 -27 25 94 53
87 44 -10 -10 -101 19 -476 42 -552 2 -9 16 -21 29 -27 l25 -12 0 -191 c0
-106 3 -190 6 -187 14 15 35 156 40 278 6 119 9 140 31 179 l25 44 -16 146
c-9 80 -19 202 -22 271 -7 164 -8 170 -40 170 -14 0 -34 -5 -45 -11 -19 -9
-19 -9 -10 10 6 11 11 29 11 40 0 12 17 31 44 50 29 20 48 42 54 63 13 41 1
343 -13 357 -20 20 -69 21 -95 4z"
      style="fill: rgb(243, 236, 120); paint-order: fill; stroke: rgb(175, 66, 97); stroke-width: 50px;"></path>
    <path
      d="M4740 4254 c-23 -21 -44 -51 -50 -72 -5 -21 -10 -110 -10 -199 0
-175 -1 -177 -55 -161 -48 13 -186 9 -233 -7 -159 -56 -273 -178 -290 -312
l-8 -58 -7 40 c-13 68 -109 388 -128 426 -28 57 -62 63 -136 28 -46 -22 -74
-46 -119 -99 -32 -38 -62 -66 -66 -62 -4 4 -15 55 -23 112 -18 125 -30 174
-50 190 -24 20 -71 2 -115 -47 -36 -38 -41 -50 -38 -79 l4 -34 -31 29 c-72 68
-208 114 -345 115 -91 1 -99 -1 -170 -36 -90 -45 -138 -88 -184 -168 -51 -87
-59 -122 -54 -251 3 -101 7 -120 32 -169 65 -125 151 -198 284 -240 l87 -27 3
-61 c3 -66 14 -79 30 -34 9 22 11 13 12 -53 3 -144 25 -153 35 -14 12 175 9
167 73 195 71 31 157 113 188 179 40 84 29 214 -19 223 -11 2 -37 -15 -68 -46
l-49 -49 0 -77 c0 -74 -1 -77 -27 -87 -41 -16 -137 -3 -204 27 -83 38 -178
140 -203 219 -6 20 -2 20 152 16 93 -2 184 1 223 8 127 23 233 112 248 208 l7
48 7 -42 c4 -23 16 -142 27 -265 21 -226 41 -350 60 -373 7 -8 9 -44 6 -96 -5
-82 -5 -83 8 -44 8 22 15 54 16 70 2 29 2 30 10 5 l7 -25 7 30 c5 17 10 39 13
50 3 11 21 37 41 58 32 33 37 45 44 110 3 39 7 101 7 137 1 36 8 87 16 113 14
48 75 167 85 167 3 0 4 -100 3 -222 -2 -152 0 -218 7 -206 8 13 28 223 30 328
2 48 69 -188 97 -341 l28 -154 38 -3 c30 -3 37 -7 37 -25 0 -44 17 -50 23 -9
2 22 19 61 37 87 29 43 32 52 26 98 l-6 52 16 -30 c41 -75 111 -127 207 -151
l64 -16 6 -97 c3 -53 9 -104 13 -114 15 -40 24 -10 24 86 1 93 2 99 14 72 l13
-30 6 25 c4 14 8 38 9 54 3 25 14 36 72 70 44 26 86 62 115 98 25 31 49 57 52
57 3 1 14 -37 24 -84 21 -103 32 -120 69 -111 38 9 104 81 112 122 9 49 -5
144 -26 179 -29 49 -59 374 -70 778 0 20 -54 3 -90 -29z m-1606 -384 c33 -12
75 -37 95 -55 l36 -33 -27 -7 c-53 -13 -448 9 -448 26 0 21 35 78 54 88 38 19
223 7 290 -19z m1474 -226 c48 -6 52 -9 52 -34 0 -34 -36 -144 -63 -192 -50
-90 -177 -90 -270 0 -52 50 -67 82 -67 141 0 43 4 53 31 75 37 32 102 36 118
9 9 -17 11 -17 23 -2 18 23 36 27 83 17 22 -4 64 -11 93 -14z"
      style="fill: rgb(243, 236, 120); paint-order: fill; stroke: rgb(175, 66, 97); stroke-width: 50px;"></path>
    <path
      d="M7614 4166 c-142 -45 -285 -174 -356 -322 l-43 -89 0 -120 c0 -112 2
-124 29 -179 38 -76 125 -167 206 -214 l65 -37 7 -60 c3 -33 10 -106 14 -163
7 -99 17 -132 28 -95 6 19 26 230 26 276 0 47 18 30 30 -29 13 -64 29 -58 30
11 1 40 1 40 66 69 36 16 85 45 107 63 49 38 45 44 77 -97 32 -135 34 -140 69
-140 21 0 42 11 71 38 37 36 40 43 40 93 0 30 -9 86 -20 124 -22 78 -50 225
-50 268 0 23 7 31 54 51 54 24 106 81 106 117 0 38 -20 41 -350 47 l-321 5
-45 -44 c-45 -44 -60 -94 -30 -105 7 -3 103 -11 212 -17 l199 -12 0 -77 c0
-70 -2 -79 -31 -115 -50 -62 -73 -68 -152 -44 -119 36 -213 118 -262 228 -28
64 -28 200 1 263 23 51 70 105 112 126 25 13 27 13 27 -5 0 -30 19 -35 29 -9
7 17 10 4 10 -54 1 -74 12 -106 25 -71 4 9 10 52 13 95 l6 78 39 0 c54 0 113
-33 143 -80 21 -34 31 -40 59 -40 46 0 116 74 116 123 0 49 -56 110 -126 136
-63 24 -166 27 -230 7z"
      style="fill: rgb(243, 236, 120); paint-order: fill; stroke: rgb(175, 66, 97); stroke-width: 50px;"></path>
    <path
      d="M5000 4141 c-43 -14 -70 -35 -93 -71 -43 -69 -15 -271 51 -365 15
-22 50 -53 77 -68 36 -20 43 -27 25 -25 -21 3 -25 -2 -33 -42 -27 -133 104
-297 293 -367 45 -17 56 -25 58 -47 4 -31 13 -33 30 -6 7 11 18 20 26 20 10 0
16 -31 23 -127 l9 -128 8 121 8 122 92 4 c141 7 238 62 257 147 8 38 7 46 -20
85 -66 96 -238 222 -346 255 -79 23 -155 66 -155 87 0 9 10 67 21 129 l22 113
50 -67 c28 -36 64 -78 79 -93 31 -29 33 -39 17 -69 -7 -14 -7 -30 1 -54 10
-31 16 -35 44 -35 37 0 81 30 91 61 4 12 12 18 21 15 22 -8 17 24 -13 85 -58
115 -219 239 -385 295 -78 27 -214 40 -258 25z m285 -151 c11 -9 13 -16 5 -24
-12 -12 -13 -46 -1 -46 5 0 12 16 16 36 3 20 8 34 11 31 5 -4 -21 -187 -34
-240 l-7 -29 -83 62 c-45 34 -87 71 -93 82 -18 33 -2 104 29 129 22 17 37 20
84 17 31 -2 64 -10 73 -18z m-16 -421 c132 -74 321 -214 344 -254 9 -17 14
-17 -93 6 -82 18 -196 79 -238 129 -54 63 -98 150 -77 150 4 0 33 -14 64 -31z"
      style="fill: rgb(243, 236, 120); paint-order: fill; stroke: rgb(175, 66, 97); stroke-width: 50px;"></path>
    <path
      d="M10726 4140 c-61 -19 -105 -82 -108 -155 -2 -48 -8 -54 -29 -29 -18
22 -113 68 -184 89 -38 12 -95 19 -155 19 -90 1 -99 -1 -171 -36 -89 -43 -153
-108 -202 -203 -31 -58 -32 -64 -32 -190 0 -116 3 -135 24 -180 63 -133 154
-213 290 -255 l86 -26 3 -62 c3 -66 14 -79 30 -34 9 24 11 20 12 -33 2 -79 13
-143 23 -128 4 7 13 68 19 135 12 134 13 136 82 159 54 18 136 97 169 161 22
44 27 66 27 130 0 121 -35 137 -117 53 -43 -44 -43 -44 -43 -120 0 -73 -1 -76
-27 -86 -41 -16 -137 -3 -204 27 -69 31 -160 121 -185 182 -9 23 -15 44 -15
48 1 3 88 7 194 8 121 1 205 6 229 14 58 20 130 73 167 124 l35 47 11 -33 c19
-54 53 -95 108 -127 29 -17 42 -29 30 -26 -23 5 -26 1 -37 -58 -9 -47 18 -128
62 -186 47 -62 148 -134 230 -165 46 -17 58 -26 67 -53 l11 -33 12 26 c6 14
18 26 25 26 11 0 16 -23 22 -91 3 -50 10 -88 13 -84 4 4 9 41 12 83 l5 77 90
6 c107 8 146 21 202 66 56 45 74 102 47 151 -45 83 -246 238 -348 267 -46 14
-143 61 -164 80 -2 2 7 59 19 127 l23 125 40 -51 c21 -28 57 -70 78 -93 38
-42 47 -70 28 -89 -6 -6 -6 -23 1 -47 9 -32 14 -37 40 -37 41 0 86 28 94 57 3
13 12 23 20 23 21 0 19 24 -9 78 -103 203 -459 379 -650 322z m289 -150 c11
-9 13 -16 4 -26 -6 -8 -8 -22 -4 -31 6 -14 11 -10 21 22 7 22 13 33 13 25 1
-24 -36 -250 -41 -255 -3 -3 -43 24 -90 59 -90 68 -103 88 -92 148 8 39 21 57
49 69 28 12 120 5 140 -11z m-671 -119 c33 -13 75 -38 95 -56 l36 -33 -27 -7
c-43 -11 -448 8 -448 21 0 19 32 75 51 88 37 26 214 18 293 -13z m665 -308
c90 -50 193 -120 274 -187 66 -55 84 -82 50 -72 -10 2 -45 10 -78 16 -109 22
-202 80 -273 172 -38 50 -63 108 -47 108 5 0 38 -16 74 -37z"
      style="fill: rgb(243, 236, 120); paint-order: fill; stroke: rgb(175, 66, 97); stroke-width: 50px;"></path>
    <path
      d="M8932 4050 c-45 -28 -72 -76 -72 -130 0 -24 11 -130 24 -235 26 -200
37 -357 26 -350 -21 13 -84 307 -77 362 7 67 -6 73 -155 73 -99 0 -138 -4
-189 -21 -96 -31 -177 -80 -250 -151 -81 -80 -114 -142 -114 -220 0 -54 2 -60
44 -102 33 -34 57 -48 105 -61 33 -10 64 -22 68 -28 4 -7 10 -47 14 -90 4 -42
11 -80 15 -83 5 -3 9 34 9 82 0 71 2 84 13 75 11 -8 18 -6 32 9 10 11 26 20
36 20 30 0 152 70 196 113 24 22 44 39 47 36 2 -2 16 -43 30 -91 15 -48 35
-108 46 -133 17 -40 23 -45 51 -45 23 0 42 10 71 40 22 22 44 37 49 34 5 -3 9
-48 9 -101 0 -53 2 -94 5 -91 3 3 11 49 18 102 12 99 26 120 40 64 11 -40 27
-20 27 32 0 20 9 54 20 75 11 22 25 72 30 110 10 70 80 315 90 315 3 0 48 -84
100 -185 92 -179 96 -185 125 -185 23 0 42 11 73 43 47 47 50 65 27 141 -8 27
-15 64 -15 83 0 42 29 185 40 196 11 12 27 -41 61 -203 51 -248 99 -360 154
-360 53 0 135 82 135 134 0 28 -5 36 -28 44 -25 8 -32 21 -55 98 -15 49 -41
157 -58 239 -44 212 -96 315 -153 301 -58 -15 -108 -68 -162 -176 l-53 -105
-14 35 c-8 19 -25 67 -37 107 -26 87 -39 100 -79 84 -46 -20 -96 -80 -144
-176 -33 -67 -46 -84 -50 -70 -3 11 -13 88 -22 170 -9 83 -21 160 -26 173 -11
27 -34 28 -77 2z m-294 -475 c5 -59 -16 -141 -45 -175 -24 -29 -27 -30 -113
-30 -99 0 -132 9 -172 48 -29 27 -35 60 -18 93 11 19 106 79 127 79 6 0 13
-15 15 -32 4 -39 22 -40 26 -3 2 18 8 25 18 21 8 -3 14 1 14 9 0 23 32 35 90
32 l55 -2 3 -40z"
      style="fill: rgb(243, 236, 120); paint-order: fill; stroke: rgb(175, 66, 97); stroke-width: 50px;"></path>
    <path
      d="M6341 3942 c-22 -20 -42 -49 -46 -63 -3 -14 0 -72 8 -128 13 -101 13
-103 -7 -111 -107 -41 -158 -81 -172 -135 -12 -50 18 -57 111 -25 32 11 69 20
81 20 26 0 25 3 53 -145 28 -144 33 -155 75 -155 43 0 102 47 111 88 3 15 -4
70 -15 122 -11 52 -20 98 -20 103 0 10 104 9 134 -3 22 -8 25 -16 28 -67 3
-59 8 -55 24 25 3 15 11 22 22 20 14 -3 18 -19 22 -98 l5 -95 13 66 c6 36 12
76 12 88 0 28 15 57 52 99 39 46 35 81 -12 104 -41 20 -223 43 -287 35 -49 -5
-43 -18 -68 134 -8 53 -15 111 -15 128 0 29 -3 31 -35 31 -26 0 -44 -9 -74
-38z"
      style="fill: rgb(243, 236, 120); paint-order: fill; stroke: rgb(175, 66, 97); stroke-width: 50px;"></path>
    <path d="M11192 2950 c0 -19 2 -27 5 -17 2 9 2 25 0 35 -3 9 -5 1 -5 -18z"
      style="fill: rgb(243, 236, 120); paint-order: fill; stroke: rgb(175, 66, 97); stroke-width: 50px;"></path>
  </g>
</svg>